<svg width="15" height="11" viewBox="0 0 15 11" fill="none" xmlns="http://www.w3.org/2000/svg">
<path d="M7.73346 1.95793C8.94814 1.95389 10.1393 2.29272 11.17 2.93545C12.2007 3.57818 13.0291 4.49873 13.56 5.59126C12.47 7.81751 10.2438 9.2246 7.73346 9.2246C5.22316 9.2246 2.99692 7.81751 1.90692 5.59126C2.43779 4.49873 3.2662 3.57818 4.29691 2.93545C5.32762 2.29272 6.51878 1.95389 7.73346 1.95793ZM7.73346 0.636719C4.43043 0.636719 1.60965 2.6912 0.466797 5.59126C1.60965 8.49133 4.43043 10.5458 7.73346 10.5458C11.0365 10.5458 13.8573 8.49133 15.0001 5.59126C13.8573 2.6912 11.0365 0.636719 7.73346 0.636719ZM7.73346 3.93975C8.17147 3.93975 8.59154 4.11375 8.90126 4.42347C9.21098 4.73319 9.38498 5.15326 9.38498 5.59126C9.38498 6.02927 9.21098 6.44934 8.90126 6.75906C8.59154 7.06878 8.17147 7.24278 7.73346 7.24278C7.29545 7.24278 6.87538 7.06878 6.56567 6.75906C6.25595 6.44934 6.08195 6.02927 6.08195 5.59126C6.08195 5.15326 6.25595 4.73319 6.56567 4.42347C6.87538 4.11375 7.29545 3.93975 7.73346 3.93975ZM7.73346 2.61854C6.09516 2.61854 4.76074 3.95296 4.76074 5.59126C4.76074 7.22957 6.09516 8.56399 7.73346 8.56399C9.37177 8.56399 10.7062 7.22957 10.7062 5.59126C10.7062 3.95296 9.37177 2.61854 7.73346 2.61854Z" fill="#484A4B"/>
</svg>
