<svg width="19" height="18" viewBox="0 0 19 18" fill="none" xmlns="http://www.w3.org/2000/svg">
<path d="M9.73646 4.38213C7.17393 4.38213 5.10584 6.44452 5.10584 9C5.10584 11.5555 7.17393 13.6179 9.73646 13.6179C12.299 13.6179 14.3671 11.5555 14.3671 9C14.3671 6.44452 12.299 4.38213 9.73646 4.38213ZM9.73646 12.0013C8.07928 12.0013 6.72689 10.6526 6.72689 9C6.72689 7.34738 8.07928 5.99872 9.73646 5.99872C11.3936 5.99872 12.746 7.34738 12.746 9C12.746 10.6526 11.3936 12.0013 9.73646 12.0013ZM14.5567 3.11678C13.9584 3.11678 13.4753 3.5986 13.4753 4.19525C13.4753 4.79191 13.9584 5.27373 14.5567 5.27373C15.155 5.27373 15.6382 4.79416 15.6382 4.19525C15.6384 4.05358 15.6105 3.91325 15.5562 3.78233C15.5019 3.6514 15.4223 3.53244 15.3218 3.43226C15.2214 3.33208 15.1021 3.25264 14.9708 3.19851C14.8395 3.14437 14.6988 3.1166 14.5567 3.11678ZM18.7629 9C18.7629 7.75716 18.7742 6.52558 18.7042 5.28499C18.6342 3.84402 18.3046 2.56515 17.248 1.51144C16.1891 0.455477 14.9089 0.129006 13.464 0.0592092C12.2177 -0.0105879 10.9827 0.000669702 9.73872 0.000669702C8.49244 0.000669702 7.25746 -0.0105879 6.01345 0.0592092C4.5685 0.129006 3.2861 0.457728 2.22948 1.51144C1.1706 2.5674 0.84323 3.84402 0.77324 5.28499C0.70325 6.52783 0.714539 7.75941 0.714539 9C0.714539 10.2406 0.70325 11.4744 0.77324 12.715C0.84323 14.156 1.17286 15.4348 2.22948 16.4886C3.28836 17.5445 4.5685 17.871 6.01345 17.9408C7.25972 18.0106 8.4947 17.9993 9.73872 17.9993C10.985 17.9993 12.22 18.0106 13.464 17.9408C14.9089 17.871 16.1913 17.5423 17.248 16.4886C18.3068 15.4326 18.6342 14.156 18.7042 12.715C18.7764 11.4744 18.7629 10.2428 18.7629 9ZM16.7761 14.3091C16.6113 14.7189 16.4126 15.0251 16.0942 15.3403C15.7759 15.6577 15.4711 15.8559 15.0602 16.0202C13.8726 16.4908 11.0527 16.385 9.73646 16.385C8.4202 16.385 5.59803 16.4908 4.41046 16.0225C3.99955 15.8581 3.6925 15.66 3.37641 15.3425C3.05807 15.0251 2.85939 14.7211 2.69458 14.3113C2.22497 13.1248 2.33108 10.3126 2.33108 9C2.33108 7.68736 2.22497 4.87296 2.69458 3.68866C2.85939 3.27888 3.05807 2.97268 3.37641 2.65746C3.69475 2.34225 3.99955 2.14187 4.41046 1.97751C5.59803 1.50919 8.4202 1.61501 9.73646 1.61501C11.0527 1.61501 13.8749 1.50919 15.0625 1.97751C15.4734 2.14187 15.7804 2.34 16.0965 2.65746C16.4148 2.97493 16.6135 3.27888 16.7783 3.68866C17.248 4.87296 17.1418 7.68736 17.1418 9C17.1418 10.3126 17.248 13.1248 16.7761 14.3091Z" fill="#E5F6FF"/>
</svg>
